<?xml version="1.0" standalone="no"?>
<!DOCTYPE svg PUBLIC "-//W3C//DTD SVG 20010904//EN"
 "http://www.w3.org/TR/2001/REC-SVG-20010904/DTD/svg10.dtd">
<svg version="1.0" xmlns="http://www.w3.org/2000/svg"
 width="512.000000pt" height="512.000000pt" viewBox="0 0 512.000000 512.000000"
 preserveAspectRatio="xMidYMid meet">
<metadata>
Created by potrace 1.11, written by Peter Selinger 2001-2013
</metadata>
<g transform="translate(0.000000,512.000000) scale(0.100000,-0.100000)"
fill="#000000" stroke="none">
<path d="M2295 4710 c-22 -3 -61 -5 -87 -5 -27 0 -48 -2 -48 -5 0 -3 -19 -5
-42 -4 -24 0 -49 -4 -55 -9 -9 -6 -13 -6 -13 1 0 7 -9 8 -27 2 -16 -5 -48 -11
-73 -14 -95 -12 -125 -19 -131 -28 -4 -6 -9 -5 -12 3 -4 11 -6 11 -6 1 -1 -7
-5 -11 -10 -8 -5 4 -22 1 -38 -5 -15 -6 -35 -12 -43 -13 -8 -1 -23 -5 -32 -9
-43 -17 -54 -20 -66 -21 -7 -1 -17 -8 -22 -16 -5 -8 -10 -12 -10 -7 0 4 -18
-2 -40 -13 -25 -13 -38 -25 -34 -32 4 -7 3 -8 -5 -4 -6 4 -14 0 -17 -8 -3 -9
-10 -14 -14 -11 -7 4 -22 -18 -24 -37 -1 -3 -4 -10 -8 -14 -14 -13 -8 -85 7
-101 8 -8 13 -18 10 -23 -5 -7 20 -22 30 -17 2 1 10 -7 18 -17 8 -11 19 -16
25 -12 7 4 12 3 12 -1 0 -5 9 -14 21 -21 17 -11 20 -11 13 0 -6 11 -5 11 9 0
9 -8 22 -10 28 -6 7 4 9 3 5 -4 -5 -9 22 -25 46 -27 4 0 17 -8 28 -17 11 -10
22 -18 25 -18 6 0 44 -31 59 -48 6 -8 25 -28 43 -47 18 -18 29 -35 26 -39 -4
-3 1 -6 11 -6 9 0 15 -4 11 -9 -3 -5 0 -15 7 -23 7 -7 22 -30 33 -50 11 -21
22 -38 25 -38 3 0 6 -10 7 -22 1 -11 8 -25 15 -29 7 -5 9 -9 3 -9 -5 0 -3 -6
5 -13 8 -7 16 -21 18 -32 9 -55 15 -75 23 -75 5 0 9 -11 9 -25 0 -14 5 -25 11
-25 5 0 8 -4 4 -9 -3 -5 1 -29 9 -53 7 -24 14 -50 15 -58 3 -43 14 -89 20 -86
4 3 7 -13 6 -36 -1 -26 4 -42 13 -45 11 -5 11 -7 0 -14 -7 -5 -8 -9 -2 -9 6 0
9 -17 8 -40 -1 -22 2 -40 6 -40 4 0 6 -14 5 -30 -1 -17 0 -32 4 -34 3 -2 6
-24 5 -48 0 -23 5 -46 10 -50 7 -5 5 -8 -4 -8 -13 0 -13 -2 -1 -9 13 -8 13
-12 0 -27 -8 -10 -9 -15 -3 -11 8 4 12 -15 13 -61 4 -103 5 -116 16 -124 6 -5
6 -8 -2 -8 -12 0 -10 -30 3 -52 4 -7 3 -8 -4 -4 -7 4 -12 2 -12 -3 0 -6 5 -11
10 -11 10 0 6 -47 -4 -58 -3 -3 0 -12 7 -20 9 -12 9 -16 -1 -19 -7 -3 -9 -10
-5 -16 5 -7 8 -572 8 -1257 l1 -1245 307 -3 307 -2 0 22 c0 13 -1 43 -1 68 -1
43 0 53 2 83 1 6 1 73 0 147 0 74 0 142 0 150 1 8 1 44 0 80 0 36 0 72 0 80 2
25 0 393 -2 430 0 19 -1 41 0 48 1 6 1 18 2 25 1 6 1 73 0 147 0 74 0 142 0
150 1 8 1 44 0 80 0 36 0 72 0 80 2 25 0 393 -2 430 0 19 -1 40 -1 45 0 6 1
138 3 295 1 157 6 290 11 297 5 7 5 14 -2 18 -6 3 -8 11 -4 16 10 16 11 70 2
75 -5 3 -5 11 1 17 5 7 9 30 9 52 0 61 1 67 14 59 7 -5 8 -3 2 7 -13 21 -14
39 -1 39 7 0 5 5 -3 10 -8 5 -10 10 -5 10 6 0 10 15 10 33 -1 17 4 35 9 39 7
5 7 8 -2 8 -9 0 -10 5 -3 18 11 21 11 21 11 78 0 27 4 43 10 39 7 -4 7 3 0 20
-7 17 -7 24 0 20 6 -4 10 5 10 19 0 37 1 40 12 54 8 8 7 12 -3 12 -12 0 -12 2
-1 9 8 4 13 11 12 15 -1 4 1 17 5 29 4 12 6 28 5 36 -1 8 4 18 12 22 10 7 10
9 1 9 -7 0 -13 5 -13 11 0 5 5 7 10 4 6 -3 10 3 10 14 0 32 1 35 12 48 6 7 8
19 5 27 -3 8 1 17 8 20 8 3 12 12 9 20 -3 8 0 17 5 21 6 3 9 11 6 16 -4 5 0
12 9 15 8 3 13 11 10 19 -3 7 1 19 9 26 7 8 12 20 9 27 -2 6 1 12 7 12 6 0 11
9 11 20 0 11 5 20 10 20 6 0 10 7 10 16 0 8 4 12 10 9 6 -3 7 1 4 9 -3 9 -1
16 5 16 6 0 11 5 11 10 0 6 9 20 20 32 10 12 17 25 14 30 -3 4 2 8 11 8 9 0
14 3 12 8 -4 9 85 96 104 100 8 2 18 10 22 18 5 8 12 12 18 9 5 -4 9 -1 9 5 0
6 5 8 10 5 6 -3 10 -1 10 4 0 6 9 11 19 11 11 0 23 5 26 10 4 6 11 8 16 5 5
-4 12 1 15 9 3 9 10 14 14 11 13 -8 90 37 90 52 0 8 4 12 8 9 4 -2 14 4 21 16
10 16 10 19 -1 12 -10 -6 -10 -5 -2 7 21 27 4 105 -31 136 -14 13 -25 28 -25
33 0 5 -7 7 -15 4 -8 -4 -15 -1 -15 4 0 6 -16 16 -34 23 -19 7 -33 16 -30 21
3 4 -2 5 -10 2 -9 -3 -16 -2 -16 3 0 5 -6 10 -12 11 -7 0 -24 3 -38 7 -14 4
-37 9 -52 12 -16 3 -28 9 -28 14 0 5 -10 8 -22 8 -13 -1 -34 2 -48 6 -14 3
-43 8 -65 9 -21 2 -40 7 -42 12 -2 5 -20 8 -40 8 -21 -1 -46 3 -57 8 -11 6
-16 6 -13 1 4 -5 0 -10 -8 -10 -8 0 -12 4 -9 9 3 4 -5 6 -18 4 -13 -1 -35 0
-51 5 -19 5 -25 4 -21 -3 5 -8 1 -9 -12 -4 -10 5 -45 10 -77 12 -31 1 -62 6
-67 9 -6 3 -10 1 -10 -5 0 -6 -5 -8 -12 -4 -16 10 -206 11 -221 2 -6 -4 -16
-3 -22 1 -5 4 -28 5 -50 1z"/>
<path d="M4167 4712 c-9 -2 -17 -8 -17 -13 0 -6 -4 -7 -10 -4 -5 3 -19 -9 -30
-27 -19 -31 -20 -50 -20 -263 1 -126 1 -301 0 -388 l0 -157 -22 5 c-13 2 -48
11 -78 18 -77 19 -250 10 -258 -14 -2 -5 -12 -9 -23 -9 -27 0 -95 -38 -129
-71 -16 -16 -34 -29 -42 -29 -10 0 -9 -3 2 -10 13 -8 12 -10 -2 -10 -10 0 -18
-7 -18 -15 0 -8 -5 -15 -11 -15 -5 0 -7 -4 -4 -10 3 -5 2 -10 -3 -10 -10 0
-22 -45 -23 -85 -2 -38 12 -110 21 -113 6 -2 10 -12 10 -23 0 -10 5 -19 10
-19 6 0 10 -7 10 -15 0 -8 5 -15 10 -15 6 0 27 -17 47 -37 20 -21 39 -38 42
-38 3 0 5 -4 3 -8 -1 -5 1 -6 6 -3 4 2 27 -4 51 -15 24 -11 46 -17 49 -14 3 3
11 0 19 -6 7 -6 13 -8 13 -3 0 5 5 2 10 -6 7 -11 10 -11 10 -2 0 8 5 10 13 5
17 -11 167 -13 167 -2 0 5 5 9 11 9 5 0 7 -6 3 -12 -5 -9 -2 -8 9 1 10 8 20
11 24 8 3 -4 11 -3 17 2 6 5 28 14 49 21 20 6 35 15 32 20 -3 5 2 7 12 6 30
-5 112 76 144 141 24 48 24 50 25 428 0 267 4 386 12 400 6 11 12 14 12 7 0
-12 54 -15 75 -3 6 3 31 4 58 3 29 -1 47 3 47 9 0 7 6 6 17 -2 11 -10 14 -10
9 -1 -7 11 6 16 41 15 7 -1 10 4 6 10 -4 6 0 8 10 4 10 -3 17 -2 17 3 0 6 3
10 8 9 15 -2 52 14 52 22 0 5 4 9 9 9 12 0 87 70 75 70 -5 0 -1 5 9 11 9 5 17
19 17 30 0 11 5 17 10 14 6 -4 10 5 10 20 0 14 3 24 8 22 16 -11 9 79 -8 103
-19 26 -96 54 -106 39 -3 -5 -9 -7 -14 -4 -5 3 -15 -1 -23 -9 -8 -8 -17 -12
-21 -9 -3 4 -6 -1 -6 -10 0 -10 -6 -16 -12 -15 -7 2 -12 -2 -11 -8 1 -6 -3
-11 -10 -12 -12 -1 -48 -9 -57 -12 -3 -1 -9 -2 -14 -1 -4 1 -13 -2 -20 -8 -13
-11 -126 -10 -126 1 0 4 -5 8 -11 8 -5 0 -7 -6 -3 -12 10 -16 -31 14 -83 62
-13 11 -27 20 -33 20 -5 0 -10 3 -10 8 0 7 -34 9 -63 4z"/>
<path d="M950 3890 c0 -3 -14 -6 -31 -7 -17 -1 -38 -8 -47 -15 -13 -11 -14
-11 -8 0 7 12 4 12 -15 1 -13 -7 -27 -12 -31 -11 -5 1 -8 -2 -8 -7 0 -5 -11
-12 -25 -15 -23 -6 -47 -21 -80 -53 -7 -7 -15 -9 -19 -6 -3 4 -6 -2 -6 -12 0
-10 -2 -16 -5 -13 -8 8 -57 -42 -74 -75 -8 -15 -18 -27 -23 -27 -5 0 -6 -4 -3
-10 3 -5 1 -10 -5 -10 -7 0 -10 -7 -6 -15 3 -8 -2 -19 -12 -24 -9 -6 -13 -11
-9 -11 4 0 3 -9 -3 -19 -5 -11 -11 -31 -12 -45 -1 -15 -5 -26 -9 -26 -9 0 -10
-62 -11 -649 -1 -426 2 -545 12 -551 10 -6 9 -9 -1 -13 -9 -4 -10 -8 -4 -14 6
-4 10 -12 10 -18 1 -32 18 -95 25 -95 8 0 20 -27 19 -43 0 -5 9 -17 20 -26 12
-10 21 -22 21 -27 0 -5 14 -22 30 -37 16 -16 30 -33 30 -38 0 -5 9 -9 21 -9
11 0 17 -4 14 -10 -3 -5 1 -10 10 -10 9 0 13 -5 9 -11 -4 -7 -1 -10 7 -7 8 3
21 -4 30 -14 10 -10 21 -18 25 -17 22 4 35 -2 28 -12 -5 -8 1 -10 20 -7 14 3
29 1 33 -5 4 -6 1 -7 -8 -2 -8 5 -11 4 -6 0 4 -5 15 -10 25 -11 9 -1 26 -5 36
-9 15 -7 17 -5 11 6 -7 12 -6 12 7 1 26 -21 407 -18 448 3 16 9 30 22 30 31 0
8 4 13 9 10 12 -8 10 166 -2 182 -8 10 -7 16 2 22 9 5 10 10 2 14 -6 4 -11 25
-11 47 0 22 -3 38 -7 36 -5 -3 -9 5 -10 16 -3 33 -8 51 -16 65 -5 6 -6 16 -2
21 3 5 1 12 -4 15 -14 9 -50 83 -44 90 4 3 1 6 -5 6 -7 0 -12 7 -12 16 0 9 -5
12 -11 8 -7 -4 -10 -1 -7 6 2 7 -10 28 -26 46 -17 18 -43 46 -57 61 -14 15
-43 42 -63 58 -21 17 -43 35 -50 42 -8 7 -16 9 -20 6 -3 -4 -6 -2 -6 4 0 10
-66 58 -83 61 -4 1 -17 11 -29 22 -12 11 -26 20 -30 20 -5 0 -6 5 -2 12 4 6 3
8 -3 5 -5 -3 -26 9 -46 28 -19 18 -38 31 -41 28 -3 -4 -6 -2 -6 3 0 5 -14 25
-30 44 -17 19 -36 50 -42 68 -7 17 -17 32 -23 32 -5 0 -3 5 5 10 10 6 11 10 3
10 -7 0 -13 11 -13 25 0 14 -6 25 -12 25 -9 0 -8 4 2 10 8 5 10 10 4 10 -7 0
-10 58 -9 178 1 97 3 180 5 185 5 13 7 27 9 48 0 11 5 18 10 14 6 -3 8 3 6 14
-2 11 3 22 11 25 8 3 14 11 14 18 1 7 13 22 27 33 14 11 34 28 44 38 11 9 24
17 29 17 6 0 10 4 10 8 0 4 12 9 27 10 15 1 30 7 33 13 9 14 147 9 179 -7 14
-7 39 -18 54 -23 17 -7 25 -15 21 -23 -4 -6 -3 -8 3 -5 20 13 113 -103 113
-141 0 -11 6 -23 13 -25 9 -4 9 -6 -1 -6 -8 -1 -10 -6 -5 -13 12 -20 11 -102
-1 -110 -8 -6 -6 -11 4 -18 10 -6 11 -10 3 -10 -7 0 -13 -9 -13 -20 0 -11 -4
-20 -10 -20 -5 0 -10 -7 -10 -15 0 -8 -5 -15 -11 -15 -5 0 -8 -4 -5 -8 3 -4
-8 -13 -25 -19 -16 -6 -29 -7 -29 -3 0 5 -9 7 -20 5 -11 -2 -20 1 -20 6 0 6
-5 7 -10 4 -12 -7 -42 20 -33 29 4 3 1 6 -4 6 -6 0 -10 11 -8 25 1 14 -2 25
-7 25 -5 0 -7 4 -4 9 7 10 -44 75 -52 67 -2 -3 -13 -1 -23 5 -13 6 -25 6 -39
-1 -15 -8 -20 -8 -21 2 0 7 -4 3 -9 -9 -5 -13 -16 -23 -25 -23 -13 0 -20 -18
-16 -42 0 -5 -3 -8 -7 -8 -9 0 -8 -42 2 -58 4 -7 4 -16 1 -22 -3 -5 -1 -10 5
-10 6 0 8 -4 5 -10 -3 -5 -1 -10 4 -10 6 0 11 -8 11 -19 0 -10 7 -24 15 -31 8
-7 12 -16 9 -21 -3 -5 0 -9 5 -9 15 0 51 -37 44 -44 -4 -3 1 -6 10 -6 10 0 17
-5 17 -11 0 -5 4 -8 9 -5 5 3 14 -1 21 -10 7 -8 19 -13 27 -10 8 3 11 1 8 -4
-4 -6 7 -10 24 -10 16 0 33 -4 36 -10 3 -5 11 -10 16 -10 6 0 7 5 3 12 -5 7
-3 8 7 2 18 -11 52 -16 46 -7 -3 5 9 8 26 7 18 -1 34 2 37 6 3 5 14 10 25 12
11 1 27 11 36 20 9 10 19 15 22 11 4 -3 9 2 13 11 3 9 13 16 21 16 8 0 11 5 8
10 -3 6 1 13 9 16 9 3 16 12 16 20 0 8 4 14 9 14 7 0 19 28 19 47 0 3 6 10 14
14 10 7 10 9 -2 9 -13 1 -12 2 1 10 11 6 16 21 14 45 -1 19 2 35 7 35 4 0 8
39 8 86 0 65 -3 83 -12 78 -9 -5 -9 -2 1 9 9 12 10 17 2 17 -7 0 -10 4 -6 9 3
5 0 13 -6 17 -8 4 -7 9 2 15 11 7 9 9 -5 9 -15 0 -17 3 -9 11 9 9 8 15 -3 26
-8 8 -12 19 -9 24 4 5 2 9 -3 9 -5 0 -12 9 -15 21 -3 12 -10 18 -15 15 -6 -4
-8 3 -4 16 3 14 2 19 -6 14 -7 -4 -12 -1 -12 8 0 8 -8 21 -18 28 -10 7 -21 21
-25 31 -3 9 -13 17 -22 17 -8 0 -15 7 -15 15 0 14 -12 19 -32 16 -5 0 -8 6 -8
14 0 8 -3 15 -7 14 -16 -2 -53 14 -53 23 0 5 -5 6 -10 3 -6 -3 -13 0 -15 8 -3
7 -16 13 -28 12 -12 -1 -25 2 -28 8 -4 5 -29 11 -55 13 -27 2 -49 4 -49 4 0 1
-26 3 -57 4 -32 1 -58 -1 -58 -4z"/>
<path d="M269 3070 c-7 -5 -17 -6 -21 -4 -4 3 -8 -2 -8 -10 0 -9 -5 -15 -11
-13 -6 1 -13 -5 -15 -13 -2 -8 -6 -27 -10 -41 -8 -38 20 -99 46 -99 12 0 19
-4 16 -8 -3 -5 14 -8 37 -8 39 0 75 20 75 40 0 5 5 12 12 16 16 10 23 60 8 60
-9 0 -8 3 2 10 8 5 10 10 4 10 -6 0 -16 12 -22 26 -7 14 -16 23 -21 20 -5 -4
-11 -2 -13 3 -4 13 -62 21 -79 11z"/>
<path d="M3907 2873 c-1 -1 -71 -3 -155 -4 -97 -2 -152 -7 -152 -14 0 -5 -5
-3 -10 5 -5 8 -10 10 -10 4 0 -6 -11 -10 -25 -9 -14 2 -25 -1 -25 -7 0 -5 -9
-7 -19 -3 -11 3 -22 1 -26 -5 -3 -6 -11 -8 -16 -5 -5 4 -9 2 -9 -4 0 -5 -8 -8
-17 -7 -10 2 -24 -3 -31 -11 -8 -7 -18 -11 -23 -8 -5 4 -9 2 -9 -2 0 -5 -15
-17 -32 -28 -41 -24 -69 -56 -63 -72 2 -7 1 -13 -4 -13 -5 0 -8 -13 -7 -30 0
-16 4 -30 8 -30 5 0 8 -7 8 -16 0 -8 5 -12 10 -9 6 3 10 0 10 -7 0 -7 27 -26
60 -41 33 -15 58 -31 56 -36 -3 -4 4 -14 15 -21 10 -8 19 -20 19 -28 0 -7 5
-10 10 -7 9 6 14 -8 11 -27 0 -5 4 -8 10 -8 6 0 9 -7 5 -15 -3 -8 -1 -15 4
-15 6 0 10 -9 10 -20 0 -11 4 -20 8 -20 7 0 11 -15 14 -57 1 -7 5 -10 10 -7 7
4 13 -43 9 -68 0 -5 2 -8 6 -8 5 0 8 -22 8 -49 -1 -27 2 -48 5 -46 3 2 6 -36
6 -83 l1 -87 309 0 309 0 0 40 c0 22 3 45 7 51 4 6 4 14 1 18 -12 12 -12 36 0
36 7 0 5 5 -3 10 -8 5 -10 10 -4 10 5 0 11 21 13 47 1 26 8 51 14 55 9 5 8 8
-3 8 -9 0 -11 3 -5 8 6 4 12 20 13 36 1 16 6 34 11 40 4 6 7 21 6 33 -1 12 2
20 7 17 4 -3 8 0 8 5 0 20 2 26 18 56 10 17 26 38 36 48 14 12 15 17 5 17 -9
0 -6 5 6 12 11 6 24 17 28 24 4 7 37 27 73 45 36 17 63 33 60 36 -3 4 -1 12 5
20 6 7 9 22 6 33 -3 11 -1 23 4 26 6 3 0 14 -12 25 -12 10 -19 19 -15 19 4 0
-8 14 -26 30 -18 17 -38 30 -45 30 -7 0 -13 5 -13 11 0 5 -4 7 -10 4 -5 -3
-10 -1 -10 5 0 6 -4 8 -10 5 -5 -3 -10 -1 -10 5 0 6 -4 9 -9 5 -5 -3 -12 -1
-16 5 -4 6 -11 8 -16 5 -5 -4 -15 -3 -21 2 -7 4 -17 8 -23 9 -50 9 -66 14 -76
20 -8 5 -9 3 -4 -5 5 -10 3 -11 -11 -4 -11 5 -57 11 -104 12 -47 2 -102 4
-123 4 -21 1 -39 1 -40 0z"/>
<path d="M266 2658 c3 -4 -2 -8 -10 -8 -9 0 -16 -5 -16 -11 0 -5 -4 -7 -10 -4
-9 6 -14 -8 -11 -27 0 -5 -4 -8 -9 -8 -6 0 -10 -18 -8 -44 2 -24 5 -43 7 -40
2 2 12 -7 22 -20 22 -28 75 -41 97 -24 13 11 14 11 7 -2 -8 -13 -7 -13 10 0
31 24 50 46 54 61 9 35 8 59 -2 59 -8 0 -7 3 1 9 11 7 10 9 -3 15 -9 3 -13 10
-10 16 4 6 -1 7 -11 3 -12 -4 -15 -3 -10 5 4 7 1 12 -9 12 -9 0 -14 4 -11 8 3
5 -15 9 -39 8 -24 0 -41 -4 -39 -8z"/>
<path d="M270 2249 c0 -5 -4 -8 -9 -6 -20 5 -61 -54 -61 -89 0 -21 4 -33 10
-29 5 3 8 0 5 -7 -14 -41 82 -81 130 -54 50 28 71 71 50 105 -5 9 -4 12 2 8 5
-3 10 0 10 8 0 8 -3 13 -5 10 -3 -3 -14 7 -24 22 -10 16 -22 29 -28 29 -5 1
-11 3 -12 4 -8 7 -68 6 -68 -1z"/>
<path d="M3580 1705 c-2 -458 0 -1489 3 -1492 10 -9 600 -5 606 5 5 8 7 1399
2 1502 l-1 25 -305 0 -305 0 0 -40z"/>
<path d="M821 1635 c-6 -8 -8 -1358 -2 -1412 1 -10 69 -13 306 -13 l305 0 0
715 c0 393 -3 715 -7 716 -5 0 -140 1 -301 2 -186 1 -296 -2 -301 -8z"/>
<path d="M3312 1415 c-12 -11 -22 -26 -22 -33 0 -7 -4 -12 -8 -12 -4 0 -8 -16
-9 -35 0 -19 3 -35 8 -35 5 0 9 -7 9 -15 0 -8 5 -15 11 -15 5 0 7 -4 4 -10 -4
-6 5 -10 20 -10 14 0 24 -4 21 -9 -3 -5 12 -8 33 -7 22 0 37 4 34 9 -2 4 5 7
17 7 12 0 18 5 15 10 -3 6 -1 10 4 10 6 0 11 7 11 16 0 8 4 13 8 10 4 -2 8 15
8 39 0 24 -3 42 -6 40 -3 -2 -11 9 -18 25 -9 19 -18 27 -28 23 -8 -3 -14 -1
-14 4 0 18 -75 9 -98 -12z"/>
<path d="M3305 997 c-20 -21 -29 -41 -31 -68 -1 -22 2 -39 7 -39 5 0 9 -5 9
-10 0 -6 12 -23 26 -38 15 -15 23 -21 19 -13 -6 10 -4 12 6 5 18 -11 69 -13
69 -2 0 4 7 8 15 8 8 0 19 9 25 20 6 11 14 19 18 16 4 -2 7 17 7 42 0 35 -6
54 -24 74 -13 15 -28 25 -32 22 -5 -3 -9 -1 -9 5 0 5 -17 9 -38 8 -28 -1 -46
-9 -67 -30z"/>
<path d="M3333 608 c-13 -6 -23 -15 -23 -20 0 -5 -4 -7 -9 -4 -11 7 -21 -17
-28 -63 -3 -22 -1 -31 6 -27 6 4 9 1 5 -7 -3 -8 2 -21 10 -30 8 -8 12 -18 8
-22 -4 -5 1 -5 10 -2 9 3 18 1 20 -5 7 -19 77 -18 88 1 5 9 10 12 10 8 0 -11
24 14 37 38 14 27 8 82 -11 101 -9 8 -16 20 -16 25 0 6 -4 8 -9 4 -5 -3 -12
-2 -15 3 -7 12 -58 12 -83 0z"/>
</g>
</svg>
